<svg width="20" height="20" viewBox="0 0 20 20" fill="none" xmlns="http://www.w3.org/2000/svg">
<g clip-path="url(#clip0_3_51)">
<path d="M7.40555 17.7778C8.0959 17.7778 8.65555 17.2182 8.65555 16.5278C8.65555 15.8375 8.0959 15.2778 7.40555 15.2778C6.71519 15.2778 6.15555 15.8375 6.15555 16.5278C6.15555 17.2182 6.71519 17.7778 7.40555 17.7778Z" fill="white"/>
<path d="M15 17.7778C15.6904 17.7778 16.25 17.2182 16.25 16.5278C16.25 15.8375 15.6904 15.2778 15 15.2778C14.3096 15.2778 13.75 15.8375 13.75 16.5278C13.75 17.2182 14.3096 17.7778 15 17.7778Z" fill="white"/>
<path d="M18.3778 2.9833C18.3261 2.91957 18.2609 2.86808 18.187 2.83254C18.113 2.797 18.0321 2.77829 17.95 2.77774H6.38334L6.74446 3.88885H17.2222L15.7389 10.5555H7.40557L4.86668 2.51663C4.83922 2.43133 4.79153 2.35394 4.72768 2.29106C4.66383 2.22818 4.58572 2.18168 4.50001 2.15552L2.22223 1.45552C2.15219 1.434 2.0786 1.42648 2.00566 1.4334C1.93272 1.44032 1.86185 1.46154 1.79711 1.49584C1.66635 1.56513 1.56848 1.68352 1.52501 1.82497C1.48154 1.96641 1.49605 2.11934 1.56533 2.25009C1.63462 2.38085 1.75301 2.47872 1.89446 2.52219L3.8889 3.1333L6.4389 11.1889L5.52779 11.9333L5.45557 12.0055C5.2302 12.2652 5.10246 12.5954 5.09434 12.9392C5.08623 13.283 5.19826 13.6188 5.41112 13.8889C5.56254 14.073 5.75496 14.2191 5.97298 14.3156C6.19099 14.4121 6.42856 14.4562 6.66668 14.4444H15.9389C16.0862 14.4444 16.2276 14.3859 16.3317 14.2817C16.4359 14.1775 16.4945 14.0362 16.4945 13.8889C16.4945 13.7415 16.4359 13.6002 16.3317 13.496C16.2276 13.3918 16.0862 13.3333 15.9389 13.3333H6.57779C6.51381 13.3311 6.45149 13.3125 6.39682 13.2792C6.34216 13.2459 6.29701 13.199 6.26573 13.1432C6.23445 13.0873 6.21811 13.0243 6.21828 12.9603C6.21844 12.8963 6.23511 12.8334 6.26668 12.7777L7.60557 11.6666H16.1833C16.3118 11.6698 16.4373 11.6283 16.5386 11.5493C16.6399 11.4703 16.7107 11.3586 16.7389 11.2333L18.5 3.45552C18.5169 3.3727 18.5147 3.28711 18.4935 3.20528C18.4723 3.12345 18.4327 3.04753 18.3778 2.9833Z" fill="white"/>
</g>
<defs>
<clipPath id="clip0_3_51">
<rect width="20" height="20" fill="white"/>
</clipPath>
</defs>
</svg>
