<svg width="20" height="20" viewBox="0 0 20 20" fill="none" xmlns="http://www.w3.org/2000/svg">
<g clip-path="url(#clip0_3_56)">
<path d="M10 9.44441C10.7692 9.44441 11.521 9.21633 12.1606 8.78901C12.8001 8.36169 13.2985 7.75433 13.5929 7.04373C13.8872 6.33313 13.9642 5.5512 13.8142 4.79683C13.6641 4.04246 13.2937 3.34953 12.7499 2.80566C12.206 2.26179 11.5131 1.89141 10.7587 1.74135C10.0043 1.5913 9.22239 1.66831 8.51179 1.96265C7.80119 2.25699 7.19383 2.75544 6.76651 3.39497C6.33919 4.03449 6.11111 4.78637 6.11111 5.55552C6.11111 6.58691 6.52084 7.57607 7.25014 8.30538C7.97945 9.03468 8.96861 9.44441 10 9.44441ZM10 2.77774C10.5494 2.77774 11.0865 2.94065 11.5433 3.24588C12.0001 3.5511 12.3561 3.98493 12.5663 4.49251C12.7766 5.00008 12.8316 5.5586 12.7244 6.09743C12.6172 6.63627 12.3527 7.13122 11.9642 7.5197C11.5757 7.90818 11.0808 8.17274 10.5419 8.27992C10.0031 8.3871 9.44457 8.33209 8.93699 8.12185C8.42942 7.9116 7.99559 7.55557 7.69037 7.09877C7.38514 6.64196 7.22223 6.10491 7.22223 5.55552C7.22223 4.8188 7.51488 4.11227 8.03582 3.59133C8.55675 3.0704 9.26329 2.77774 10 2.77774Z" fill="white"/>
<path d="M16.9278 13.5389C16.0368 12.5973 14.9632 11.8472 13.7725 11.3346C12.5818 10.822 11.2991 10.5576 10.0028 10.5576C8.70643 10.5576 7.42371 10.822 6.23303 11.3346C5.04234 11.8472 3.96871 12.5973 3.07777 13.5389C2.88461 13.7453 2.77733 14.0174 2.77777 14.3001V17.2223C2.77777 17.517 2.89484 17.7996 3.10321 18.0079C3.31158 18.2163 3.5942 18.3334 3.88888 18.3334H16.1111C16.4058 18.3334 16.6884 18.2163 16.8968 18.0079C17.1052 17.7996 17.2222 17.517 17.2222 17.2223V14.3001C17.2242 14.0182 17.1189 13.7461 16.9278 13.5389ZM16.1111 17.2223H3.88888V14.2945C4.67623 13.4654 5.62404 12.8052 6.67464 12.3541C7.72523 11.903 8.85664 11.6703 10 11.6703C11.1434 11.6703 12.2748 11.903 13.3254 12.3541C14.3759 12.8052 15.3238 13.4654 16.1111 14.2945V17.2223Z" fill="white"/>
</g>
<defs>
<clipPath id="clip0_3_56">
<rect width="20" height="20" fill="white"/>
</clipPath>
</defs>
</svg>
