<svg width="16" height="16" viewBox="0 0 16 16" fill="none" xmlns="http://www.w3.org/2000/svg">
<path d="M8.07223 1.80551C9.27564 1.80442 10.4523 2.16026 11.4535 2.82804C12.4546 3.49582 13.2352 4.44552 13.6965 5.557C14.1577 6.66849 14.279 7.89182 14.0449 9.07224C13.8108 10.2527 13.2319 11.3371 12.3813 12.1884C11.5308 13.0398 10.4468 13.6197 9.26663 13.8549C8.08643 14.0901 6.86299 13.9699 5.75108 13.5096C4.63917 13.0494 3.68876 12.2697 3.02007 11.2691C2.35138 10.2686 1.99445 9.09225 1.99445 7.88885C2.00175 6.27866 2.64425 4.73641 3.78232 3.5973C4.92039 2.45819 6.46205 1.81428 8.07223 1.80551ZM8.07223 0.666626C6.64381 0.666626 5.24747 1.0902 4.05978 1.88379C2.87209 2.67738 1.9464 3.80533 1.39977 5.12502C0.853135 6.44471 0.710111 7.89686 0.988782 9.29783C1.26745 10.6988 1.9553 11.9857 2.96535 12.9957C3.97539 14.0058 5.26227 14.6936 6.66325 14.9723C8.06422 15.251 9.51637 15.1079 10.8361 14.5613C12.1557 14.0147 13.2837 13.089 14.0773 11.9013C14.8709 10.7136 15.2945 9.31727 15.2945 7.88885C15.2945 5.9734 14.5335 4.1364 13.1791 2.78197C11.8247 1.42754 9.98768 0.666626 8.07223 0.666626Z" fill="white"/>
</svg>
