<svg width="24" height="25" viewBox="0 0 24 25" fill="none" xmlns="http://www.w3.org/2000/svg">
<path d="M5 6C5 5.07174 5.36875 4.1815 6.02513 3.52513C6.6815 2.86875 7.57174 2.5 8.5 2.5H12V9.5H8.5C7.57174 9.5 6.6815 9.13125 6.02513 8.47487C5.36875 7.8185 5 6.92826 5 6Z" stroke="white" stroke-linecap="round" stroke-linejoin="round"/>
<path d="M12 2.5H15.5C15.9596 2.5 16.4148 2.59053 16.8394 2.76642C17.264 2.94231 17.6499 3.20012 17.9749 3.52513C18.2999 3.85013 18.5577 4.23597 18.7336 4.66061C18.9095 5.08525 19 5.54037 19 6C19 6.45963 18.9095 6.91475 18.7336 7.33939C18.5577 7.76403 18.2999 8.14987 17.9749 8.47487C17.6499 8.79988 17.264 9.05769 16.8394 9.23358C16.4148 9.40947 15.9596 9.5 15.5 9.5H12V2.5Z" stroke="white" stroke-linecap="round" stroke-linejoin="round"/>
<path d="M12 13C12 12.5404 12.0905 12.0852 12.2664 11.6606C12.4423 11.236 12.7001 10.8501 13.0251 10.5251C13.3501 10.2001 13.736 9.94231 14.1606 9.76642C14.5852 9.59053 15.0404 9.5 15.5 9.5C15.9596 9.5 16.4148 9.59053 16.8394 9.76642C17.264 9.94231 17.6499 10.2001 17.9749 10.5251C18.2999 10.8501 18.5577 11.236 18.7336 11.6606C18.9095 12.0852 19 12.5404 19 13C19 13.4596 18.9095 13.9148 18.7336 14.3394C18.5577 14.764 18.2999 15.1499 17.9749 15.4749C17.6499 15.7999 17.264 16.0577 16.8394 16.2336C16.4148 16.4095 15.9596 16.5 15.5 16.5C15.0404 16.5 14.5852 16.4095 14.1606 16.2336C13.736 16.0577 13.3501 15.7999 13.0251 15.4749C12.7001 15.1499 12.4423 14.764 12.2664 14.3394C12.0905 13.9148 12 13.4596 12 13V13Z" stroke="white" stroke-linecap="round" stroke-linejoin="round"/>
<path d="M5 20C5 19.0717 5.36875 18.1815 6.02513 17.5251C6.6815 16.8687 7.57174 16.5 8.5 16.5H12V20C12 20.9283 11.6313 21.8185 10.9749 22.4749C10.3185 23.1313 9.42826 23.5 8.5 23.5C7.57174 23.5 6.6815 23.1313 6.02513 22.4749C5.36875 21.8185 5 20.9283 5 20Z" stroke="white" stroke-linecap="round" stroke-linejoin="round"/>
<path d="M5 13C5 12.0717 5.36875 11.1815 6.02513 10.5251C6.6815 9.86875 7.57174 9.5 8.5 9.5H12V16.5H8.5C7.57174 16.5 6.6815 16.1313 6.02513 15.4749C5.36875 14.8185 5 13.9283 5 13Z" stroke="white" stroke-linecap="round" stroke-linejoin="round"/>
</svg>
