<svg width="22" height="23" viewBox="0 0 22 23" fill="none" xmlns="http://www.w3.org/2000/svg">
<path fill-rule="evenodd" clip-rule="evenodd" d="M5.7619 1.52381C3.14512 1.52381 1.0238 3.64513 1.0238 6.2619V16.7381C1.0238 19.3549 3.14512 21.4762 5.7619 21.4762H16.2381C18.8549 21.4762 20.9762 19.3549 20.9762 16.7381V6.2619C20.9762 3.64513 18.8549 1.52381 16.2381 1.52381H5.7619ZM0.0238037 6.2619C0.0238037 3.09284 2.59284 0.523809 5.7619 0.523809H16.2381C19.4072 0.523809 21.9762 3.09284 21.9762 6.2619V16.7381C21.9762 19.9072 19.4072 22.4762 16.2381 22.4762H5.7619C2.59284 22.4762 0.0238037 19.9072 0.0238037 16.7381V6.2619ZM11.5866 7.80392C10.8188 7.69006 10.0346 7.82121 9.34559 8.17873C8.65658 8.53624 8.09785 9.10191 7.74886 9.79528C7.39986 10.4886 7.27839 11.2744 7.40171 12.0408C7.52503 12.8072 7.88687 13.5152 8.43576 14.064C8.98464 14.6129 9.69263 14.9748 10.459 15.0981C11.2254 15.2214 12.0112 15.0999 12.7045 14.7509C13.3979 14.4019 13.9636 13.8432 14.3211 13.1542C14.6786 12.4652 14.8097 11.681 14.6959 10.9131C14.5797 10.1299 14.2148 9.4048 13.6549 8.84492C13.095 8.28503 12.3699 7.92006 11.5866 7.80392ZM8.88502 7.2911C9.76073 6.83671 10.7574 6.67002 11.7333 6.81474C12.7288 6.96235 13.6504 7.42621 14.362 8.13781C15.0736 8.84941 15.5374 9.771 15.6851 10.7665C15.8298 11.7424 15.6631 12.7391 15.2087 13.6148C14.7543 14.4905 14.0354 15.2006 13.1541 15.6442C12.2729 16.0877 11.2742 16.2421 10.3001 16.0854C9.32609 15.9286 8.42627 15.4688 7.72865 14.7711C7.03103 14.0735 6.57115 13.1737 6.41441 12.1997C6.25767 11.2256 6.41206 10.2269 6.85562 9.34569C7.29918 8.46444 8.00931 7.74549 8.88502 7.2911ZM16.7619 5.2381C16.4858 5.2381 16.2619 5.46195 16.2619 5.7381C16.2619 6.01424 16.4858 6.2381 16.7619 6.2381H16.7719C17.048 6.2381 17.2719 6.01424 17.2719 5.7381C17.2719 5.46195 17.048 5.2381 16.7719 5.2381H16.7619Z" fill="white"/>
</svg>
