<svg width="24" height="25" viewBox="0 0 24 25" fill="none" xmlns="http://www.w3.org/2000/svg">
<path d="M23 3.5C22.0424 4.17548 20.9821 4.69211 19.86 5.03C19.2577 4.33751 18.4573 3.84669 17.567 3.62393C16.6767 3.40116 15.7395 3.4572 14.8821 3.78445C14.0247 4.11171 13.2884 4.6944 12.773 5.45372C12.2575 6.21303 11.9877 7.11234 12 8.03V9.03C10.2426 9.07557 8.50127 8.68581 6.93101 7.89545C5.36074 7.10508 4.01032 5.93864 3 4.5C3 4.5 -1 13.5 8 17.5C5.94053 18.898 3.48716 19.5989 1 19.5C10 24.5 21 19.5 21 8C20.9991 7.72145 20.9723 7.44359 20.92 7.17C21.9406 6.16349 22.6608 4.89271 23 3.5V3.5Z" stroke="white" stroke-linecap="round" stroke-linejoin="round"/>
</svg>
